<svg width="168" height="111" viewBox="0 0 168 111" fill="none" xmlns="http://www.w3.org/2000/svg">
<path d="M119.091 58.3371C117.817 56.3845 108.519 34.5766 103.199 19.2772C103.199 19.2772 92.7844 45.8838 80.8938 54.4311C63.9149 66.6362 46.3215 64.1699 32.381 51.3622C49.6672 62.2431 70.0911 55.8261 77.8269 46.8982C85.5627 37.9702 88.9141 33.5732 102.641 1.14222C103.573 -0.494514 104.61 -0.262557 105.429 1.14222C114.909 22.6252 126.061 51.0831 129.407 55.2681C132.752 59.4531 134.704 60.9278 140.001 60.7684C140.592 60.8599 140.638 61.8157 140.559 61.9641H117.418C117.418 61.4061 117.139 60.966 117.697 60.9278C118.254 60.8896 120.365 60.2898 119.091 58.3371Z" fill="#F3F3ED"/>
<path d="M91.4886 19.2772C88.9069 25.8775 87.2653 29.0816 83.9607 34.0642C84.7386 23.042 82.0091 16.2082 76.4329 11.7442C70.8567 7.28021 58.0315 4.49022 53.5705 6.16422C49.1096 7.83821 54.9299 33.1954 53.5705 38.5282C52.2111 43.861 50.178 45.9422 44.6486 48.2932C44.6486 48.2932 46.0394 7.83773 44.6486 6.16422C43.2578 4.4907 38.236 3.93222 37.6784 3.65322C37.1208 3.37422 37.1208 2.81622 37.6784 2.53722C38.236 2.25822 50.5036 1.42122 65.0017 2.53722C79.4998 3.65322 85.3671 8.4393 91.4886 19.2772Z" fill="#F3F3ED"/>
<path d="M33.4963 24.0202C25.9684 26.8102 22.8002 35.8243 26.8048 43.5502C26.3406 34.3008 31.8466 30.4959 36.5632 31.5532C41.2797 32.6105 41.0241 21.2302 33.4963 24.0202Z" fill="#F3F3ED"/>
<path d="M7.91944 104.402H19.267L18.5616 101.333H8.59416L7.91944 104.402ZM13.5319 94.5195L16.9361 102.499L17.0281 103.389L19.9417 109.926H24.0207L13.5319 87.246L3.04306 109.926H7.12204L10.0969 103.205L10.1583 102.407L13.5319 94.5195Z" fill="#F3F3ED"/>
<path d="M30.505 96.8519L37.0375 107.931L43.57 96.8519L45.0728 109.926H48.8144L45.8702 87.3687L37.0375 101.946L28.2355 87.3687L25.2913 109.926H29.0329L30.505 96.8519Z" fill="#F3F3ED"/>
<path d="M54.9113 104.402H66.2589L65.5535 101.333H55.586L54.9113 104.402ZM60.5238 94.5195L63.928 102.499L64.02 103.389L66.9336 109.926H71.0126L60.5238 87.246L50.0349 109.926H54.1139L57.0888 103.205L57.1502 102.407L60.5238 94.5195Z" fill="#F3F3ED"/>
<path d="M72.4672 91.7881H82.2813L71.5164 109.926H87.403V106.673H77.3742L88.2004 88.4429H72.4672V91.7881Z" fill="#F3F3ED"/>
<path d="M92.7577 101.333C92.7577 100.154 93.003 99.1066 93.4937 98.19C94.0008 97.257 94.6959 96.5287 95.5792 96.0049C96.4625 95.4811 97.4684 95.2192 98.597 95.2192C99.7584 95.2192 100.772 95.4811 101.639 96.0049C102.523 96.5287 103.21 97.257 103.7 98.19C104.191 99.1066 104.436 100.154 104.436 101.333C104.436 102.511 104.183 103.567 103.676 104.5C103.185 105.416 102.498 106.137 101.615 106.66C100.748 107.184 99.742 107.446 98.597 107.446C97.4684 107.446 96.4625 107.184 95.5792 106.66C94.6959 106.137 94.0008 105.416 93.4937 104.5C93.003 103.567 92.7577 102.511 92.7577 101.333ZM89.6908 101.333C89.6908 102.609 89.9116 103.796 90.3532 104.893C90.7948 105.989 91.4082 106.939 92.1933 107.741C92.9948 108.543 93.9435 109.173 95.0394 109.631C96.1353 110.073 97.3212 110.294 98.597 110.294C99.8892 110.294 101.075 110.073 102.155 109.631C103.251 109.173 104.199 108.543 105.001 107.741C105.802 106.939 106.424 105.989 106.865 104.893C107.307 103.796 107.528 102.609 107.528 101.333C107.528 100.04 107.307 98.8529 106.865 97.7726C106.424 96.6923 105.794 95.7594 104.976 94.9737C104.175 94.1717 103.234 93.5497 102.155 93.1078C101.075 92.6658 99.8892 92.4448 98.597 92.4448C97.3376 92.4448 96.1599 92.6658 95.064 93.1078C93.9844 93.5497 93.0357 94.1717 92.2179 94.9737C91.4164 95.7594 90.7948 96.6923 90.3532 97.7726C89.9116 98.8529 89.6908 100.04 89.6908 101.333ZM98.6952 88.713L101.198 90.9717L102.989 89.6705L98.6952 86.2332L94.4015 89.6705L96.168 90.9717L98.6952 88.713Z" fill="#F3F3ED"/>
<path d="M126.494 88.4429V102.867L110.822 87.3687V109.926H114.38V95.5016L130.051 111V88.4429H126.494Z" fill="#F3F3ED"/>
<path d="M134.812 88.4429V109.926H138.462V88.4429H134.812Z" fill="#F3F3ED"/>
<path d="M145.834 104.402H157.182L156.476 101.333H146.509L145.834 104.402ZM151.447 94.5195L154.851 102.499L154.943 103.389L157.856 109.926H161.935L151.447 87.246L140.958 109.926H145.037L148.012 103.205L148.073 102.407L151.447 94.5195Z" fill="#F3F3ED"/>
<path d="M0 69.5267V82.0259H1.51672V69.5267H0ZM3.7472 82.0259C4.96057 82.0259 6.03715 81.764 6.97692 81.2402C7.9167 80.7164 8.65424 79.9903 9.18955 79.0618C9.72487 78.1214 9.99252 77.0262 9.99252 75.7763C9.99252 74.5264 9.72487 73.4372 9.18955 72.5087C8.65424 71.5682 7.9167 70.8361 6.97692 70.3124C6.03715 69.7886 4.96057 69.5267 3.7472 69.5267H0.838658V71.0445H3.7472C4.44905 71.0445 5.09143 71.1576 5.67433 71.3837C6.25722 71.598 6.75685 71.9135 7.1732 72.3301C7.58956 72.7348 7.91075 73.2288 8.13677 73.8121C8.36279 74.3954 8.4758 75.0502 8.4758 75.7763C8.4758 76.5024 8.36279 77.1572 8.13677 77.7404C7.91075 78.3237 7.58956 78.8237 7.1732 79.2404C6.75685 79.6451 6.25722 79.9605 5.67433 80.1867C5.09143 80.401 4.44905 80.5081 3.7472 80.5081H0.838658V82.0259H3.7472Z" fill="#F3F3ED"/>
<path d="M13.859 82.0259H20.1579V80.5974H13.859V82.0259ZM13.859 70.9552H20.1579V69.5267H13.859V70.9552ZM13.859 75.9549H19.801V74.5264H13.859V75.9549ZM13.0204 69.5267V82.0259H14.5371V69.5267H13.0204Z" fill="#F3F3ED"/>
<path d="M23.7232 69.5267V82.0259H30.1469V80.5974H25.2399V69.5267H23.7232Z" fill="#F3F3ED"/>
<path d="M32.6486 69.5267V82.0259H34.1653V69.5267H32.6486ZM35.7177 65.5984L34.3973 64.8842L31.7207 67.7411L32.5058 68.2768L35.7177 65.5984Z" fill="#F3F3ED"/>
<path d="M38.8068 75.7763C38.8068 74.8002 39.0209 73.949 39.4491 73.2229C39.8893 72.4848 40.4603 71.9075 41.1621 71.4909C41.864 71.0742 42.6253 70.8659 43.4461 70.8659C44.0409 70.8659 44.5822 70.9433 45.0699 71.098C45.5696 71.2528 46.0216 71.473 46.4261 71.7587C46.8305 72.0325 47.1755 72.3539 47.461 72.7229V70.7231C46.9376 70.2588 46.3666 69.9136 45.748 69.6874C45.1294 69.4612 44.3621 69.3481 43.4461 69.3481C42.5778 69.3481 41.7629 69.5089 41.0016 69.8303C40.2521 70.1398 39.5919 70.5862 39.0209 71.1695C38.4499 71.7408 38.0038 72.4194 37.6826 73.205C37.3614 73.9907 37.2008 74.8478 37.2008 75.7763C37.2008 76.7048 37.3614 77.5619 37.6826 78.3476C38.0038 79.1332 38.4499 79.8177 39.0209 80.401C39.5919 80.9724 40.2521 81.4188 41.0016 81.7402C41.7629 82.0497 42.5778 82.2045 43.4461 82.2045C44.3621 82.2045 45.1294 82.0914 45.748 81.8652C46.3666 81.639 46.9376 81.2938 47.461 80.8295V78.8297C47.1755 79.1987 46.8305 79.5261 46.4261 79.8117C46.0216 80.0855 45.5696 80.2998 45.0699 80.4546C44.5822 80.6093 44.0409 80.6867 43.4461 80.6867C42.6253 80.6867 41.864 80.4784 41.1621 80.0617C40.4603 79.6451 39.8893 79.0677 39.4491 78.3297C39.0209 77.5917 38.8068 76.7405 38.8068 75.7763Z" fill="#F3F3ED"/>
<path d="M51.0221 69.5267V82.0259H52.5388V69.5267H51.0221Z" fill="#F3F3ED"/>
<path d="M57.4836 78.2761H64.0858L63.5505 76.8477H58.0189L57.4836 78.2761ZM60.7491 72.3479L62.8903 77.3833L63.0331 77.7404L64.8531 82.0259H66.5483L60.7491 68.9017L54.9498 82.0259H56.645L58.5007 77.6333L58.6435 77.3119L60.7491 72.3479Z" fill="#F3F3ED"/>
<path d="M69.4239 78.2404L68.2105 79.0618C68.4841 79.6094 68.8351 80.1272 69.2633 80.6153C69.7035 81.0914 70.209 81.4783 70.78 81.7759C71.3629 82.0616 71.9934 82.2045 72.6715 82.2045C73.1711 82.2045 73.6469 82.1211 74.099 81.9545C74.5629 81.7878 74.9733 81.5497 75.3302 81.2402C75.699 80.9307 75.9845 80.5557 76.1867 80.1153C76.4008 79.6749 76.5079 79.1808 76.5079 78.6333C76.5079 78.0619 76.4068 77.5738 76.2046 77.1691C76.0023 76.7524 75.7406 76.4013 75.4194 76.1156C75.1101 75.818 74.7711 75.5739 74.4023 75.3835C74.0336 75.193 73.6826 75.0382 73.3495 74.9192C72.6239 74.6692 72.047 74.4192 71.6187 74.1693C71.2024 73.9074 70.905 73.6336 70.7265 73.3479C70.5481 73.0503 70.4589 72.7289 70.4589 72.3837C70.4589 71.9789 70.6135 71.6159 70.9228 71.2944C71.2321 70.9611 71.7258 70.7945 72.4038 70.7945C72.8916 70.7945 73.302 70.8897 73.6351 71.0802C73.98 71.2706 74.2715 71.5147 74.5094 71.8123C74.7473 72.1099 74.9436 72.4134 75.0982 72.7229L76.4008 71.973C76.1986 71.5325 75.9191 71.1159 75.5622 70.7231C75.2053 70.3183 74.7711 69.991 74.2596 69.741C73.76 69.4791 73.1711 69.3481 72.493 69.3481C71.7912 69.3481 71.1667 69.491 70.6195 69.7767C70.0722 70.0505 69.644 70.4314 69.3347 70.9195C69.0254 71.4075 68.8708 71.9611 68.8708 72.5801C68.8708 73.1515 68.9778 73.6336 69.1919 74.0264C69.418 74.4192 69.7035 74.7526 70.0485 75.0263C70.3934 75.2882 70.7563 75.5085 71.1369 75.687C71.5176 75.8537 71.8626 75.9906 72.1719 76.0977C72.6477 76.2644 73.0938 76.4548 73.5101 76.6691C73.9384 76.8715 74.2834 77.1393 74.5451 77.4726C74.8068 77.8059 74.9377 78.2523 74.9377 78.8118C74.9377 79.3832 74.7354 79.8534 74.331 80.2224C73.9265 80.5915 73.3912 80.776 72.725 80.776C72.2254 80.776 71.7793 80.6688 71.3867 80.4546C70.9942 80.2403 70.6373 79.9427 70.3161 79.5618C70.0068 79.1808 69.7094 78.7404 69.4239 78.2404Z" fill="#F3F3ED"/>
<path d="M86.7084 70.9552H92.2935V69.5267H86.7084V70.9552ZM86.7084 75.9549H92.1151V74.5264H86.7084V75.9549ZM85.8698 69.5267V82.0259H87.3865V69.5267H85.8698Z" fill="#F3F3ED"/>
<path d="M95.6838 69.5267V82.0259H97.2006V69.5267H95.6838Z" fill="#F3F3ED"/>
<path d="M110.407 69.5267V78.8297L100.95 68.9017V82.0259H102.467V72.7229L111.924 82.6508V69.5267H110.407Z" fill="#F3F3ED"/>
<path d="M116.873 78.2761H123.476L122.94 76.8477H117.409L116.873 78.2761ZM120.139 72.3479L122.28 77.3833L122.423 77.7404L124.243 82.0259H125.938L120.139 68.9017L114.34 82.0259H116.035L117.891 77.6333L118.033 77.3119L120.139 72.3479Z" fill="#F3F3ED"/>
<path d="M128.814 78.2404L127.6 79.0618C127.874 79.6094 128.225 80.1272 128.653 80.6153C129.093 81.0914 129.599 81.4783 130.17 81.7759C130.753 82.0616 131.383 82.2045 132.061 82.2045C132.561 82.2045 133.037 82.1211 133.489 81.9545C133.953 81.7878 134.363 81.5497 134.72 81.2402C135.089 80.9307 135.374 80.5557 135.577 80.1153C135.791 79.6749 135.898 79.1808 135.898 78.6333C135.898 78.0619 135.797 77.5738 135.594 77.1691C135.392 76.7524 135.13 76.4013 134.809 76.1156C134.5 75.818 134.161 75.5739 133.792 75.3835C133.423 75.193 133.072 75.0382 132.739 74.9192C132.014 74.6692 131.437 74.4192 131.009 74.1693C130.592 73.9074 130.295 73.6336 130.116 73.3479C129.938 73.0503 129.849 72.7289 129.849 72.3837C129.849 71.9789 130.003 71.6159 130.313 71.2944C130.622 70.9611 131.116 70.7945 131.794 70.7945C132.281 70.7945 132.692 70.8897 133.025 71.0802C133.37 71.2706 133.661 71.5147 133.899 71.8123C134.137 72.1099 134.333 72.4134 134.488 72.7229L135.791 71.973C135.588 71.5325 135.309 71.1159 134.952 70.7231C134.595 70.3183 134.161 69.991 133.649 69.741C133.15 69.4791 132.561 69.3481 131.883 69.3481C131.181 69.3481 130.557 69.491 130.009 69.7767C129.462 70.0505 129.034 70.4314 128.725 70.9195C128.415 71.4075 128.261 71.9611 128.261 72.5801C128.261 73.1515 128.368 73.6336 128.582 74.0264C128.808 74.4192 129.093 74.7526 129.438 75.0263C129.783 75.2882 130.146 75.5085 130.527 75.687C130.907 75.8537 131.252 75.9906 131.562 76.0977C132.038 76.2644 132.484 76.4548 132.9 76.6691C133.328 76.8715 133.673 77.1393 133.935 77.4726C134.197 77.8059 134.328 78.2523 134.328 78.8118C134.328 79.3832 134.125 79.8534 133.721 80.2224C133.316 80.5915 132.781 80.776 132.115 80.776C131.615 80.776 131.169 80.6688 130.777 80.4546C130.384 80.2403 130.027 79.9427 129.706 79.5618C129.397 79.1808 129.099 78.7404 128.814 78.2404Z" fill="#F3F3ED"/>
<path d="M145.26 69.5267V82.0259H146.776V69.5267H145.26ZM149.007 82.0259C150.22 82.0259 151.297 81.764 152.237 81.2402C153.176 80.7164 153.914 79.9903 154.449 79.0618C154.984 78.1214 155.252 77.0262 155.252 75.7763C155.252 74.5264 154.984 73.4372 154.449 72.5087C153.914 71.5682 153.176 70.8361 152.237 70.3124C151.297 69.7886 150.22 69.5267 149.007 69.5267H146.098V71.0445H149.007C149.709 71.0445 150.351 71.1576 150.934 71.3837C151.517 71.598 152.016 71.9135 152.433 72.3301C152.849 72.7348 153.17 73.2288 153.396 73.8121C153.622 74.3954 153.735 75.0502 153.735 75.7763C153.735 76.5024 153.622 77.1572 153.396 77.7404C153.17 78.3237 152.849 78.8237 152.433 79.2404C152.016 79.6451 151.517 79.9605 150.934 80.1867C150.351 80.401 149.709 80.5081 149.007 80.5081H146.098V82.0259H149.007Z" fill="#F3F3ED"/>
<path d="M158.935 78.2761H165.538L165.002 76.8477H159.471L158.935 78.2761ZM162.201 72.3479L164.342 77.3833L164.485 77.7404L166.305 82.0259H168L162.201 68.9017L156.402 82.0259H158.097L159.952 77.6333L160.095 77.3119L162.201 72.3479Z" fill="#F3F3ED"/>
</svg>
