<svg width="228" height="44" viewBox="0 0 228 44" fill="none" xmlns="http://www.w3.org/2000/svg">
<path d="M89.212 38.32H98.832L98.234 35.72H89.784L89.212 38.32ZM93.97 29.948L96.856 36.708L96.934 37.462L99.404 43H102.862L93.97 23.786L85.078 43H88.536L91.058 37.306L91.11 36.63L93.97 29.948Z" fill="#F3F3ED"/>
<path d="M108.749 31.924L114.287 41.31L119.825 31.924L121.099 43H124.271L121.775 23.89L114.287 36.24L106.825 23.89L104.329 43H107.501L108.749 31.924Z" fill="#F3F3ED"/>
<path d="M129.83 38.32H139.45L138.852 35.72H130.402L129.83 38.32ZM134.588 29.948L137.474 36.708L137.552 37.462L140.022 43H143.48L134.588 23.786L125.696 43H129.154L131.676 37.306L131.728 36.63L134.588 29.948Z" fill="#F3F3ED"/>
<path d="M145.103 27.634H153.423L144.297 43H157.765V40.244H149.263L158.441 24.8H145.103V27.634Z" fill="#F3F3ED"/>
<path d="M162.727 35.65C162.727 34.642 162.937 33.746 163.357 32.962C163.791 32.164 164.386 31.541 165.142 31.093C165.898 30.645 166.759 30.421 167.725 30.421C168.719 30.421 169.587 30.645 170.329 31.093C171.085 31.541 171.673 32.164 172.093 32.962C172.513 33.746 172.723 34.642 172.723 35.65C172.723 36.658 172.506 37.561 172.072 38.359C171.652 39.143 171.064 39.759 170.308 40.207C169.566 40.655 168.705 40.879 167.725 40.879C166.759 40.879 165.898 40.655 165.142 40.207C164.386 39.759 163.791 39.143 163.357 38.359C162.937 37.561 162.727 36.658 162.727 35.65ZM160.102 35.65C160.102 36.742 160.291 37.757 160.669 38.695C161.047 39.633 161.572 40.445 162.244 41.131C162.93 41.817 163.742 42.356 164.68 42.748C165.618 43.126 166.633 43.315 167.725 43.315C168.831 43.315 169.846 43.126 170.77 42.748C171.708 42.356 172.52 41.817 173.206 41.131C173.892 40.445 174.424 39.633 174.802 38.695C175.18 37.757 175.369 36.742 175.369 35.65C175.369 34.544 175.18 33.529 174.802 32.605C174.424 31.681 173.885 30.883 173.185 30.211C172.499 29.525 171.694 28.993 170.77 28.615C169.846 28.237 168.831 28.048 167.725 28.048C166.647 28.048 165.639 28.237 164.701 28.615C163.777 28.993 162.965 29.525 162.265 30.211C161.579 30.883 161.047 31.681 160.669 32.605C160.291 33.529 160.102 34.544 160.102 35.65ZM167.809 24.856L169.951 26.788L171.484 25.675L167.809 22.735L164.134 25.675L165.646 26.788L167.809 24.856Z" fill="#F3F3ED"/>
<path d="M191.77 24.8V37.02L178.484 23.89V43H181.5V30.78L194.786 43.91V24.8H191.77Z" fill="#F3F3ED"/>
<path d="M199.212 24.8V43H202.306V24.8H199.212Z" fill="#F3F3ED"/>
<path d="M208.946 38.32H218.566L217.968 35.72H209.518L208.946 38.32ZM213.704 29.948L216.59 36.708L216.668 37.462L219.138 43H222.596L213.704 23.786L204.812 43H208.27L210.792 37.306L210.844 36.63L213.704 29.948Z" fill="#F3F3ED"/>
<path d="M82.28 7.8V19H83.64V7.8H82.28ZM85.64 19C86.728 19 87.6933 18.7653 88.536 18.296C89.3787 17.8267 90.04 17.176 90.52 16.344C91 15.5013 91.24 14.52 91.24 13.4C91.24 12.28 91 11.304 90.52 10.472C90.04 9.62933 89.3787 8.97333 88.536 8.504C87.6933 8.03467 86.728 7.8 85.64 7.8H83.032V9.16H85.64C86.2693 9.16 86.8453 9.26133 87.368 9.464C87.8907 9.656 88.3387 9.93867 88.712 10.312C89.0853 10.6747 89.3733 11.1173 89.576 11.64C89.7787 12.1627 89.88 12.7493 89.88 13.4C89.88 14.0507 89.7787 14.6373 89.576 15.16C89.3733 15.6827 89.0853 16.1307 88.712 16.504C88.3387 16.8667 87.8907 17.1493 87.368 17.352C86.8453 17.544 86.2693 17.64 85.64 17.64H83.032V19H85.64Z" fill="#F3F3ED"/>
<path d="M94.387 19H100.035V17.72H94.387V19ZM94.387 9.08H100.035V7.8H94.387V9.08ZM94.387 13.56H99.715V12.28H94.387V13.56ZM93.635 7.8V19H94.995V7.8H93.635Z" fill="#F3F3ED"/>
<path d="M102.912 7.8V19H108.672V17.72H104.272V7.8H102.912Z" fill="#F3F3ED"/>
<path d="M110.595 7.8V19H111.955V7.8H110.595ZM113.347 4.28L112.163 3.64L109.763 6.2L110.467 6.68L113.347 4.28Z" fill="#F3F3ED"/>
<path d="M115.797 13.4C115.797 12.5253 115.989 11.7627 116.373 11.112C116.768 10.4507 117.28 9.93333 117.909 9.56C118.538 9.18667 119.221 9 119.957 9C120.49 9 120.976 9.06933 121.413 9.208C121.861 9.34667 122.266 9.544 122.629 9.8C122.992 10.0453 123.301 10.3333 123.557 10.664V8.872C123.088 8.456 122.576 8.14667 122.021 7.944C121.466 7.74133 120.778 7.64 119.957 7.64C119.178 7.64 118.448 7.784 117.765 8.072C117.093 8.34933 116.501 8.74933 115.989 9.272C115.477 9.784 115.077 10.392 114.789 11.096C114.501 11.8 114.357 12.568 114.357 13.4C114.357 14.232 114.501 15 114.789 15.704C115.077 16.408 115.477 17.0213 115.989 17.544C116.501 18.056 117.093 18.456 117.765 18.744C118.448 19.0213 119.178 19.16 119.957 19.16C120.778 19.16 121.466 19.0587 122.021 18.856C122.576 18.6533 123.088 18.344 123.557 17.928V16.136C123.301 16.4667 122.992 16.76 122.629 17.016C122.266 17.2613 121.861 17.4533 121.413 17.592C120.976 17.7307 120.49 17.8 119.957 17.8C119.221 17.8 118.538 17.6133 117.909 17.24C117.28 16.8667 116.768 16.3493 116.373 15.688C115.989 15.0267 115.797 14.264 115.797 13.4Z" fill="#F3F3ED"/>
<path d="M126.43 7.8V19H127.79V7.8H126.43Z" fill="#F3F3ED"/>
<path d="M131.904 15.64H137.824L137.344 14.36H132.384L131.904 15.64ZM134.832 10.328L136.752 14.84L136.88 15.16L138.512 19H140.032L134.832 7.24L129.632 19H131.152L132.816 15.064L132.944 14.776L134.832 10.328Z" fill="#F3F3ED"/>
<path d="M142.29 15.608L141.202 16.344C141.448 16.8347 141.762 17.2987 142.146 17.736C142.541 18.1627 142.994 18.5093 143.506 18.776C144.029 19.032 144.594 19.16 145.202 19.16C145.65 19.16 146.077 19.0853 146.482 18.936C146.898 18.7867 147.266 18.5733 147.586 18.296C147.917 18.0187 148.173 17.6827 148.354 17.288C148.546 16.8933 148.642 16.4507 148.642 15.96C148.642 15.448 148.552 15.0107 148.37 14.648C148.189 14.2747 147.954 13.96 147.666 13.704C147.389 13.4373 147.085 13.2187 146.754 13.048C146.424 12.8773 146.109 12.7387 145.81 12.632C145.16 12.408 144.642 12.184 144.258 11.96C143.885 11.7253 143.618 11.48 143.458 11.224C143.298 10.9573 143.218 10.6693 143.218 10.36C143.218 9.99733 143.357 9.672 143.634 9.384C143.912 9.08533 144.354 8.936 144.962 8.936C145.4 8.936 145.768 9.02133 146.066 9.192C146.376 9.36267 146.637 9.58133 146.85 9.848C147.064 10.1147 147.24 10.3867 147.378 10.664L148.546 9.992C148.365 9.59733 148.114 9.224 147.794 8.872C147.474 8.50933 147.085 8.216 146.626 7.992C146.178 7.75733 145.65 7.64 145.042 7.64C144.413 7.64 143.853 7.768 143.362 8.024C142.872 8.26933 142.488 8.61067 142.21 9.048C141.933 9.48533 141.794 9.98133 141.794 10.536C141.794 11.048 141.89 11.48 142.082 11.832C142.285 12.184 142.541 12.4827 142.85 12.728C143.16 12.9627 143.485 13.16 143.826 13.32C144.168 13.4693 144.477 13.592 144.754 13.688C145.181 13.8373 145.581 14.008 145.954 14.2C146.338 14.3813 146.648 14.6213 146.882 14.92C147.117 15.2187 147.234 15.6187 147.234 16.12C147.234 16.632 147.053 17.0533 146.69 17.384C146.328 17.7147 145.848 17.88 145.25 17.88C144.802 17.88 144.402 17.784 144.05 17.592C143.698 17.4 143.378 17.1333 143.09 16.792C142.813 16.4507 142.546 16.056 142.29 15.608Z" fill="#F3F3ED"/>
<path d="M157.149 9.08H162.157V7.8H157.149V9.08ZM157.149 13.56H161.997V12.28H157.149V13.56ZM156.397 7.8V19H157.757V7.8H156.397Z" fill="#F3F3ED"/>
<path d="M164.877 7.8V19H166.237V7.8H164.877Z" fill="#F3F3ED"/>
<path d="M177.759 7.8V16.136L169.279 7.24V19H170.639V10.664L179.119 19.56V7.8H177.759Z" fill="#F3F3ED"/>
<path d="M183.237 15.64H189.157L188.677 14.36H183.717L183.237 15.64ZM186.165 10.328L188.085 14.84L188.213 15.16L189.845 19H191.365L186.165 7.24L180.965 19H182.485L184.149 15.064L184.277 14.776L186.165 10.328Z" fill="#F3F3ED"/>
<path d="M193.624 15.608L192.535 16.344C192.781 16.8347 193.095 17.2987 193.479 17.736C193.874 18.1627 194.327 18.5093 194.839 18.776C195.362 19.032 195.927 19.16 196.535 19.16C196.983 19.16 197.41 19.0853 197.816 18.936C198.232 18.7867 198.599 18.5733 198.919 18.296C199.25 18.0187 199.506 17.6827 199.688 17.288C199.88 16.8933 199.975 16.4507 199.975 15.96C199.975 15.448 199.885 15.0107 199.703 14.648C199.522 14.2747 199.287 13.96 198.999 13.704C198.722 13.4373 198.418 13.2187 198.087 13.048C197.757 12.8773 197.442 12.7387 197.143 12.632C196.493 12.408 195.975 12.184 195.591 11.96C195.218 11.7253 194.952 11.48 194.792 11.224C194.632 10.9573 194.551 10.6693 194.551 10.36C194.551 9.99733 194.69 9.672 194.967 9.384C195.245 9.08533 195.688 8.936 196.296 8.936C196.733 8.936 197.101 9.02133 197.4 9.192C197.709 9.36267 197.97 9.58133 198.184 9.848C198.397 10.1147 198.573 10.3867 198.712 10.664L199.88 9.992C199.698 9.59733 199.448 9.224 199.128 8.872C198.808 8.50933 198.418 8.216 197.96 7.992C197.512 7.75733 196.984 7.64 196.376 7.64C195.746 7.64 195.186 7.768 194.695 8.024C194.205 8.26933 193.821 8.61067 193.544 9.048C193.266 9.48533 193.128 9.98133 193.128 10.536C193.128 11.048 193.223 11.48 193.415 11.832C193.618 12.184 193.874 12.4827 194.184 12.728C194.493 12.9627 194.818 13.16 195.16 13.32C195.501 13.4693 195.81 13.592 196.087 13.688C196.514 13.8373 196.914 14.008 197.287 14.2C197.671 14.3813 197.981 14.6213 198.215 14.92C198.45 15.2187 198.568 15.6187 198.568 16.12C198.568 16.632 198.386 17.0533 198.023 17.384C197.661 17.7147 197.181 17.88 196.583 17.88C196.135 17.88 195.735 17.784 195.383 17.592C195.031 17.4 194.711 17.1333 194.423 16.792C194.146 16.4507 193.88 16.056 193.624 15.608Z" fill="#F3F3ED"/>
<path d="M207.73 7.8V19H209.09V7.8H207.73ZM211.09 19C212.178 19 213.143 18.7653 213.986 18.296C214.829 17.8267 215.49 17.176 215.97 16.344C216.45 15.5013 216.69 14.52 216.69 13.4C216.69 12.28 216.45 11.304 215.97 10.472C215.49 9.62933 214.829 8.97333 213.986 8.504C213.143 8.03467 212.178 7.8 211.09 7.8H208.482V9.16H211.09C211.719 9.16 212.295 9.26133 212.818 9.464C213.341 9.656 213.789 9.93867 214.162 10.312C214.535 10.6747 214.823 11.1173 215.026 11.64C215.229 12.1627 215.33 12.7493 215.33 13.4C215.33 14.0507 215.229 14.6373 215.026 15.16C214.823 15.6827 214.535 16.1307 214.162 16.504C213.789 16.8667 213.341 17.1493 212.818 17.352C212.295 17.544 211.719 17.64 211.09 17.64H208.482V19H211.09Z" fill="#F3F3ED"/>
<path d="M219.673 15.64H225.593L225.113 14.36H220.153L219.673 15.64ZM222.601 10.328L224.521 14.84L224.649 15.16L226.281 19H227.801L222.601 7.24L217.401 19H218.921L220.585 15.064L220.713 14.776L222.601 10.328Z" fill="#F3F3ED"/>
<path d="M65.1133 40.2347C64.2309 38.888 57.7929 23.8472 54.1083 13.2953C54.1083 13.2953 46.8968 31.6457 38.6628 37.5407C26.9054 45.9585 14.7223 44.2575 5.06886 35.4241C17.0391 42.9286 31.1822 38.5029 36.5391 32.3453C41.8959 26.1877 44.2167 23.1552 53.7222 0.787782C54.3677 -0.341063 55.086 -0.181084 55.6529 0.787782C62.2172 15.6044 69.94 35.2316 72.2568 38.118C74.5736 41.0044 75.9251 42.0214 79.5934 41.9115C80.0024 41.9746 80.0342 42.6338 79.9796 42.7362H63.9549C63.9549 42.3513 63.7618 42.0478 64.1479 42.0214C64.5341 41.995 65.9956 41.5814 65.1133 40.2347Z" fill="#F3F3ED"/>
<path d="M45.9995 13.2953C44.2117 17.8475 43.0749 20.0574 40.7866 23.4938C41.3253 15.8919 39.4351 11.1787 35.5737 8.09989C31.7124 5.02111 22.8312 3.09687 19.7421 4.25141C16.653 5.40595 20.6834 22.8946 19.7421 26.5726C18.8007 30.2506 17.3928 31.686 13.5639 33.3074C13.5639 33.3074 14.527 5.40562 13.5639 4.25141C12.6008 3.0972 9.1233 2.71202 8.73716 2.5196C8.35103 2.32717 8.35103 1.94233 8.73716 1.7499C9.1233 1.55748 17.6183 0.980206 27.6579 1.7499C37.6975 2.5196 41.7605 5.82052 45.9995 13.2953Z" fill="#F3F3ED"/>
<path d="M5.84113 16.5665C0.628266 18.4908 -1.56564 24.7077 1.20748 30.0362C0.886043 23.657 4.6988 21.0328 7.96489 21.762C11.231 22.4912 11.054 14.6423 5.84113 16.5665Z" fill="#F3F3ED"/>
</svg>
