<svg width="100" height="67" viewBox="0 0 100 67" fill="none" xmlns="http://www.w3.org/2000/svg">
<path d="M70.8873 34.7008C70.1289 33.5393 64.5948 20.5673 61.4277 11.4667C61.4277 11.4667 55.2288 27.2931 48.1511 32.3774C38.0446 39.6374 27.5723 38.1703 19.2744 30.5518C29.5638 37.0242 41.7209 33.2072 46.3256 27.8965C50.9302 22.5859 52.9251 19.9704 61.0958 0.67943C61.6506 -0.294153 62.2681 -0.156177 62.7554 0.67943C68.3979 13.4582 75.0363 30.3859 77.0277 32.8753C79.0192 35.3646 80.1809 36.2418 83.3341 36.147C83.6857 36.2014 83.713 36.77 83.6661 36.8582H69.8916C69.8916 36.5263 69.7256 36.2645 70.0575 36.2418C70.3894 36.219 71.6457 35.8623 70.8873 34.7008Z" fill="#936639"/>
<path d="M54.4575 11.4667C52.9208 15.3928 51.9436 17.2987 49.9766 20.2625C50.4396 13.7061 48.8149 9.64116 45.4958 6.98583C42.1766 4.3305 34.5425 2.67093 31.8872 3.66667C29.2319 4.66242 32.6964 19.7457 31.8872 22.9178C31.0781 26.0899 29.8678 27.3279 26.5766 28.7263C26.5766 28.7263 27.4044 4.66213 26.5766 3.66667C25.7487 2.67121 22.7595 2.33901 22.4276 2.17305C22.0957 2.00709 22.0957 1.67518 22.4276 1.50922C22.7595 1.34326 30.0617 0.845388 38.6915 1.50922C47.3213 2.17305 50.8138 5.01996 54.4575 11.4667Z" fill="#936639"/>
<path d="M19.9382 14.288C15.4574 15.9476 13.5715 21.3094 15.9553 25.905C15.679 20.4032 18.9563 18.1399 21.7638 18.7688C24.5712 19.3977 24.4191 12.6284 19.9382 14.288Z" fill="#936639"/>
<path d="M4.71395 62.1014H11.4684L11.0486 60.2759H5.11557L4.71395 62.1014ZM8.05468 56.2232L10.081 60.9696L10.1358 61.499L11.8701 65.3874H14.298L8.05468 51.8967L1.81135 65.3874H4.23931L6.01008 61.3895L6.04659 60.9148L8.05468 56.2232Z" fill="#2D1502"/>
<path d="M18.1577 57.6106L22.0461 64.2008L25.9345 57.6106L26.829 65.3874H29.0562L27.3037 51.9697L22.0461 60.641L16.8068 51.9697L15.0543 65.3874H17.2815L18.1577 57.6106Z" fill="#2D1502"/>
<path d="M32.6853 62.1014H39.4398L39.0199 60.2759H33.0869L32.6853 62.1014ZM36.026 56.2232L38.0524 60.9696L38.1072 61.499L39.8414 65.3874H42.2694L36.026 51.8967L29.7827 65.3874H32.2107L33.9814 61.3895L34.0179 60.9148L36.026 56.2232Z" fill="#2D1502"/>
<path d="M43.1352 54.5985H48.9769L42.5693 65.3874H52.0256V63.4523H46.0561L52.5002 52.6086H43.1352V54.5985Z" fill="#2D1502"/>
<path d="M55.2129 60.2759C55.2129 59.5749 55.3589 58.9518 55.651 58.4066C55.9528 57.8516 56.3666 57.4183 56.8924 57.1068C57.4181 56.7952 58.0169 56.6394 58.6887 56.6394C59.38 56.6394 59.9836 56.7952 60.4996 57.1068C61.0254 57.4183 61.4343 57.8516 61.7264 58.4066C62.0185 58.9518 62.1645 59.5749 62.1645 60.2759C62.1645 60.9769 62.0136 61.6049 61.7118 62.1599C61.4197 62.7051 61.0108 63.1335 60.485 63.445C59.969 63.7566 59.3702 63.9124 58.6887 63.9124C58.0169 63.9124 57.4181 63.7566 56.8924 63.445C56.3666 63.1335 55.9528 62.7051 55.651 62.1599C55.3589 61.6049 55.2129 60.9769 55.2129 60.2759ZM53.3874 60.2759C53.3874 61.0353 53.5188 61.7412 53.7817 62.3935C54.0445 63.0458 54.4097 63.6105 54.877 64.0876C55.3541 64.5647 55.9188 64.9395 56.5711 65.2122C57.2234 65.475 57.9293 65.6065 58.6887 65.6065C59.4579 65.6065 60.1637 65.475 60.8063 65.2122C61.4587 64.9395 62.0234 64.5647 62.5004 64.0876C62.9775 63.6105 63.3475 63.0458 63.6104 62.3935C63.8732 61.7412 64.0047 61.0353 64.0047 60.2759C64.0047 59.5067 63.8732 58.8009 63.6104 58.1583C63.3475 57.5157 62.9726 56.9607 62.4858 56.4934C62.0088 56.0163 61.4489 55.6463 60.8063 55.3835C60.1637 55.1206 59.4579 54.9891 58.6887 54.9891C57.939 54.9891 57.238 55.1206 56.5857 55.3835C55.9431 55.6463 55.3784 56.0163 54.8916 56.4934C54.4145 56.9607 54.0445 57.5157 53.7817 58.1583C53.5188 58.8009 53.3874 59.5067 53.3874 60.2759ZM58.7471 52.7693L60.2368 54.1129L61.3029 53.3389L58.7471 51.2943L56.1914 53.3389L57.2429 54.1129L58.7471 52.7693Z" fill="#2D1502"/>
<path d="M75.2939 52.6086V61.1887L65.9654 51.9697V65.3874H68.083V56.8074L77.4115 66.0263V52.6086H75.2939Z" fill="#2D1502"/>
<path d="M80.2452 52.6086V65.3874H82.4176V52.6086H80.2452Z" fill="#2D1502"/>
<path d="M86.8061 62.1014H93.5605L93.1407 60.2759H87.2077L86.8061 62.1014ZM90.1468 56.2232L92.1731 60.9696L92.2279 61.499L93.9622 65.3874H96.3901L90.1468 51.8967L83.9034 65.3874H86.3314L88.1022 61.3895L88.1387 60.9148L90.1468 56.2232Z" fill="#2D1502"/>
<path d="M0 41.3567V48.7916H0.902811V41.3567H0ZM2.23047 48.7916C2.95272 48.7916 3.59354 48.6358 4.15293 48.3243C4.71232 48.0127 5.15133 47.5808 5.46997 47.0285C5.78861 46.4691 5.94793 45.8177 5.94793 45.0742C5.94793 44.3307 5.78861 43.6828 5.46997 43.1305C5.15133 42.5711 4.71232 42.1356 4.15293 41.824C3.59354 41.5125 2.95272 41.3567 2.23047 41.3567H0.499201V42.2595H2.23047C2.64825 42.2595 3.03061 42.3268 3.37758 42.4613C3.72454 42.5888 4.02193 42.7764 4.26976 43.0242C4.51759 43.265 4.70878 43.5589 4.84331 43.9058C4.97785 44.2528 5.04512 44.6422 5.04512 45.0742C5.04512 45.5061 4.97785 45.8955 4.84331 46.2425C4.70878 46.5895 4.51759 46.8869 4.26976 47.1347C4.02193 47.3754 3.72454 47.5631 3.37758 47.6976C3.03061 47.8251 2.64825 47.8888 2.23047 47.8888H0.499201V48.7916H2.23047Z" fill="#2D1502"/>
<path d="M8.24943 48.7916H11.9988V47.9419H8.24943V48.7916ZM8.24943 42.2064H11.9988V41.3567H8.24943V42.2064ZM8.24943 45.1804H11.7863V44.3307H8.24943V45.1804ZM7.75023 41.3567V48.7916H8.65304V41.3567H7.75023Z" fill="#2D1502"/>
<path d="M14.1209 41.3567V48.7916H17.9446V47.9419H15.0238V41.3567H14.1209Z" fill="#2D1502"/>
<path d="M19.4337 41.3567V48.7916H20.3365V41.3567H19.4337ZM21.2605 39.02L20.4746 38.5952L18.8814 40.2946L19.3487 40.6132L21.2605 39.02Z" fill="#2D1502"/>
<path d="M23.0993 45.0742C23.0993 44.4935 23.2267 43.9872 23.4816 43.5553C23.7436 43.1163 24.0835 42.7729 24.5013 42.525C24.919 42.2772 25.3722 42.1533 25.8608 42.1533C26.2148 42.1533 26.537 42.1993 26.8273 42.2914C27.1247 42.3834 27.3938 42.5144 27.6346 42.6844C27.8753 42.8472 28.0807 43.0384 28.2506 43.2579V42.0683C27.939 41.7922 27.5992 41.5868 27.231 41.4523C26.8627 41.3178 26.406 41.2505 25.8608 41.2505C25.3439 41.2505 24.8589 41.3461 24.4057 41.5373C23.9596 41.7214 23.5666 41.9869 23.2267 42.3339C22.8868 42.6737 22.6213 43.0774 22.4301 43.5447C22.2389 44.012 22.1433 44.5219 22.1433 45.0742C22.1433 45.6265 22.2389 46.1363 22.4301 46.6036C22.6213 47.071 22.8868 47.4781 23.2267 47.8251C23.5666 48.165 23.9596 48.4305 24.4057 48.6217C24.8589 48.8058 25.3439 48.8978 25.8608 48.8978C26.406 48.8978 26.8627 48.8306 27.231 48.696C27.5992 48.5615 27.939 48.3561 28.2506 48.08V46.8904C28.0807 47.1099 27.8753 47.3046 27.6346 47.4746C27.3938 47.6374 27.1247 47.7649 26.8273 47.8569C26.537 47.949 26.2148 47.995 25.8608 47.995C25.3722 47.995 24.919 47.8711 24.5013 47.6233C24.0835 47.3754 23.7436 47.032 23.4816 46.593C23.2267 46.154 23.0993 45.6477 23.0993 45.0742Z" fill="#2D1502"/>
<path d="M30.3703 41.3567V48.7916H31.2731V41.3567H30.3703Z" fill="#2D1502"/>
<path d="M34.2164 46.5611H38.1463L37.8277 45.7114H34.5351L34.2164 46.5611ZM36.1601 43.0349L37.4347 46.0301L37.5197 46.2425L38.603 48.7916H39.6121L36.1601 40.985L32.7082 48.7916H33.7172L34.8219 46.1788L34.9068 45.9876L36.1601 43.0349Z" fill="#2D1502"/>
<path d="M41.3238 46.5399L40.6015 47.0285C40.7644 47.3542 40.9733 47.6622 41.2282 47.9525C41.4902 48.2358 41.7911 48.4659 42.131 48.6429C42.4779 48.8129 42.8532 48.8978 43.2568 48.8978C43.5542 48.8978 43.8375 48.8483 44.1065 48.7491C44.3827 48.65 44.627 48.5084 44.8394 48.3243C45.0589 48.1402 45.2289 47.9171 45.3492 47.6551C45.4767 47.3931 45.5404 47.0993 45.5404 46.7736C45.5404 46.4337 45.4802 46.1434 45.3599 45.9026C45.2395 45.6548 45.0837 45.4459 44.8925 45.276C44.7084 45.0989 44.5066 44.9538 44.2871 44.8405C44.0676 44.7272 43.8587 44.6351 43.6604 44.5643C43.2285 44.4156 42.8851 44.2669 42.6302 44.1182C42.3824 43.9625 42.2053 43.7996 42.0991 43.6297C41.9929 43.4526 41.9398 43.2615 41.9398 43.0561C41.9398 42.8154 42.0318 42.5994 42.2159 42.4082C42.4001 42.2099 42.6939 42.1108 43.0975 42.1108C43.3878 42.1108 43.6321 42.1675 43.8304 42.2808C44.0357 42.3941 44.2092 42.5392 44.3508 42.7162C44.4924 42.8933 44.6093 43.0738 44.7013 43.2579L45.4767 42.8118C45.3563 42.5498 45.1899 42.302 44.9775 42.0683C44.7651 41.8276 44.5066 41.6329 44.2021 41.4842C43.9047 41.3284 43.5542 41.2505 43.1506 41.2505C42.7329 41.2505 42.3611 41.3355 42.0354 41.5054C41.7097 41.6683 41.4548 41.8949 41.2707 42.1852C41.0866 42.4755 40.9945 42.8047 40.9945 43.1729C40.9945 43.5128 41.0582 43.7996 41.1857 44.0333C41.3202 44.2669 41.4902 44.4652 41.6955 44.6281C41.9009 44.7838 42.1168 44.9148 42.3434 45.0211C42.57 45.1202 42.7753 45.2016 42.9594 45.2653C43.2427 45.3645 43.5082 45.4778 43.756 45.6052C44.011 45.7256 44.2163 45.8849 44.3721 46.0832C44.5279 46.2814 44.6057 46.547 44.6057 46.8798C44.6057 47.2197 44.4854 47.4994 44.2446 47.7189C44.0039 47.9384 43.6852 48.0481 43.2887 48.0481C42.9913 48.0481 42.7258 47.9844 42.4921 47.8569C42.2584 47.7295 42.046 47.5525 41.8548 47.3259C41.6707 47.0993 41.4937 46.8373 41.3238 46.5399Z" fill="#2D1502"/>
<path d="M51.6122 42.2064H54.9366V41.3567H51.6122V42.2064ZM51.6122 45.1804H54.8304V44.3307H51.6122V45.1804ZM51.113 41.3567V48.7916H52.0158V41.3567H51.113Z" fill="#2D1502"/>
<path d="M56.9547 41.3567V48.7916H57.8575V41.3567H56.9547Z" fill="#2D1502"/>
<path d="M65.7185 41.3567V46.8904L60.0892 40.985V48.7916H60.992V43.2579L66.6213 49.1634V41.3567H65.7185Z" fill="#2D1502"/>
<path d="M69.5676 46.5611H73.4974L73.1788 45.7114H69.8862L69.5676 46.5611ZM71.5113 43.0349L72.7858 46.0301L72.8708 46.2425L73.9542 48.7916H74.9632L71.5113 40.985L68.0593 48.7916H69.0684L70.173 46.1788L70.2579 45.9876L71.5113 43.0349Z" fill="#2D1502"/>
<path d="M76.6749 46.5399L75.9526 47.0285C76.1155 47.3542 76.3244 47.6622 76.5793 47.9525C76.8413 48.2358 77.1422 48.4659 77.4821 48.6429C77.8291 48.8129 78.2043 48.8978 78.6079 48.8978C78.9053 48.8978 79.1886 48.8483 79.4576 48.7491C79.7338 48.65 79.9781 48.5084 80.1905 48.3243C80.41 48.1402 80.58 47.9171 80.7003 47.6551C80.8278 47.3931 80.8915 47.0993 80.8915 46.7736C80.8915 46.4337 80.8313 46.1434 80.711 45.9026C80.5906 45.6548 80.4348 45.4459 80.2436 45.276C80.0595 45.0989 79.8577 44.9538 79.6382 44.8405C79.4187 44.7272 79.2098 44.6351 79.0116 44.5643C78.5796 44.4156 78.2362 44.2669 77.9813 44.1182C77.7335 43.9625 77.5564 43.7996 77.4502 43.6297C77.344 43.4526 77.2909 43.2615 77.2909 43.0561C77.2909 42.8154 77.383 42.5994 77.5671 42.4082C77.7512 42.2099 78.045 42.1108 78.4486 42.1108C78.7389 42.1108 78.9832 42.1675 79.1815 42.2808C79.3868 42.3941 79.5603 42.5392 79.7019 42.7162C79.8436 42.8933 79.9604 43.0738 80.0524 43.2579L80.8278 42.8118C80.7074 42.5498 80.541 42.302 80.3286 42.0683C80.1162 41.8276 79.8577 41.6329 79.5532 41.4842C79.2558 41.3284 78.9053 41.2505 78.5017 41.2505C78.084 41.2505 77.7122 41.3355 77.3865 41.5054C77.0608 41.6683 76.8059 41.8949 76.6218 42.1852C76.4377 42.4755 76.3456 42.8047 76.3456 43.1729C76.3456 43.5128 76.4093 43.7996 76.5368 44.0333C76.6713 44.2669 76.8413 44.4652 77.0466 44.6281C77.252 44.7838 77.4679 44.9148 77.6945 45.0211C77.9211 45.1202 78.1264 45.2016 78.3105 45.2653C78.5938 45.3645 78.8593 45.4778 79.1071 45.6052C79.3621 45.7256 79.5674 45.8849 79.7232 46.0832C79.879 46.2814 79.9568 46.547 79.9568 46.8798C79.9568 47.2197 79.8365 47.4994 79.5957 47.7189C79.355 47.9384 79.0363 48.0481 78.6398 48.0481C78.3424 48.0481 78.0769 47.9844 77.8432 47.8569C77.6095 47.7295 77.3971 47.5525 77.2059 47.3259C77.0218 47.0993 76.8448 46.8373 76.6749 46.5399Z" fill="#2D1502"/>
<path d="M86.4641 41.3567V48.7916H87.3669V41.3567H86.4641ZM88.6945 48.7916C89.4168 48.7916 90.0576 48.6358 90.617 48.3243C91.1764 48.0127 91.6154 47.5808 91.934 47.0285C92.2527 46.4691 92.412 45.8177 92.412 45.0742C92.412 44.3307 92.2527 43.6828 91.934 43.1305C91.6154 42.5711 91.1764 42.1356 90.617 41.824C90.0576 41.5125 89.4168 41.3567 88.6945 41.3567H86.9633V42.2595H88.6945C89.1123 42.2595 89.4947 42.3268 89.8416 42.4613C90.1886 42.5888 90.486 42.7764 90.7338 43.0242C90.9817 43.265 91.1728 43.5589 91.3074 43.9058C91.4419 44.2528 91.5092 44.6422 91.5092 45.0742C91.5092 45.5061 91.4419 45.8955 91.3074 46.2425C91.1728 46.5895 90.9817 46.8869 90.7338 47.1347C90.486 47.3754 90.1886 47.5631 89.8416 47.6976C89.4947 47.8251 89.1123 47.8888 88.6945 47.8888H86.9633V48.7916H88.6945Z" fill="#2D1502"/>
<path d="M94.6044 46.5611H98.5343L98.2156 45.7114H94.923L94.6044 46.5611ZM96.5481 43.0349L97.8226 46.0301L97.9076 46.2425L98.991 48.7916H100L96.5481 40.985L93.0961 48.7916H94.1052L95.2098 46.1788L95.2948 45.9876L96.5481 43.0349Z" fill="#2D1502"/>
</svg>
