<svg width="32" height="37" viewBox="0 0 32 37" fill="none" xmlns="http://www.w3.org/2000/svg">
<path d="M27.2071 6.93564C24.2143 3.93564 20.2286 2.28564 15.9929 2.28564C7.25 2.28564 0.135714 9.39993 0.135714 18.1428C0.135714 20.9356 0.864286 23.6642 2.25 26.0714L0 34.2856L8.40714 32.0785C10.7214 33.3428 13.3286 34.0071 15.9857 34.0071H15.9929C24.7286 34.0071 32 26.8928 32 18.1499C32 13.9142 30.2 9.93564 27.2071 6.93564ZM15.9929 31.3356C13.6214 31.3356 11.3 30.6999 9.27857 29.4999L8.8 29.2142L3.81429 30.5214L5.14286 25.6571L4.82857 25.1571C3.50714 23.0571 2.81429 20.6356 2.81429 18.1428C2.81429 10.8785 8.72857 4.96422 16 4.96422C19.5214 4.96422 22.8286 6.33564 25.3143 8.8285C27.8 11.3214 29.3286 14.6285 29.3214 18.1499C29.3214 25.4214 23.2571 31.3356 15.9929 31.3356ZM23.2214 21.4642C22.8286 21.2642 20.8786 20.3071 20.5143 20.1785C20.15 20.0428 19.8857 19.9785 19.6214 20.3785C19.3571 20.7785 18.6 21.6642 18.3643 21.9356C18.1357 22.1999 17.9 22.2356 17.5071 22.0356C15.1786 20.8714 13.65 19.9571 12.1143 17.3214C11.7071 16.6214 12.5214 16.6714 13.2786 15.1571C13.4071 14.8928 13.3429 14.6642 13.2429 14.4642C13.1429 14.2642 12.35 12.3142 12.0214 11.5214C11.7 10.7499 11.3714 10.8571 11.1286 10.8428C10.9 10.8285 10.6357 10.8285 10.3714 10.8285C10.1071 10.8285 9.67857 10.9285 9.31429 11.3214C8.95 11.7214 7.92857 12.6785 7.92857 14.6285C7.92857 16.5785 9.35 18.4642 9.54286 18.7285C9.74286 18.9928 12.3357 22.9928 16.3143 24.7142C18.8286 25.7999 19.8143 25.8928 21.0714 25.7071C21.8357 25.5928 23.4143 24.7499 23.7429 23.8214C24.0714 22.8928 24.0714 22.0999 23.9714 21.9356C23.8786 21.7571 23.6143 21.6571 23.2214 21.4642Z" fill="url(#a)"/>
  <defs>
    <linearGradient id="a" x1="16" y1="0" x2="16" y2="32" gradientUnits="userSpaceOnUse">
      <stop stop-color="#FFBF00"/>
      <stop offset="1" stop-color="#F2A50C"/>
    </linearGradient>
  </defs>
</svg>
